<svg xmlns="http://www.w3.org/2000/svg" xmlns:xlink="http://www.w3.org/1999/xlink" width="1200" height="2200" viewBox="0 0 1200 2200">
<defs>
  <style type="text/css"><![CDATA[
    @import url('https://fonts.googleapis.com/css2?family=Inter:wght@400;600;700;800&family=JetBrains+Mono:wght@400&display=swap');
    .title{font-family:Inter,Segoe UI,system-ui,sans-serif;font-size:48px;font-weight:800;fill:#2D3748}
    .section-head{font-family:Inter,Segoe UI,system-ui,sans-serif;font-size:24px;font-weight:700;fill:#2D3748}
    .sub-head{font-family:Inter,Segoe UI,system-ui,sans-serif;font-size:16px;font-weight:600;fill:#2D3748}
    .body{font-family:Inter,Segoe UI,system-ui,sans-serif;font-size:13px;font-weight:400;fill:#718096}
    .body-dark{font-family:Inter,Segoe UI,system-ui,sans-serif;font-size:13px;font-weight:400;fill:#2D3748}
    .code{font-family:JetBrains Mono,Consolas,Monaco,monospace;font-size:12px;fill:#2D3748}
    .code-sm{font-family:JetBrains Mono,Consolas,Monaco,monospace;font-size:10.5px;fill:#718096}
    .label{font-family:Inter,Segoe UI,system-ui,sans-serif;font-size:11px;font-weight:600;fill:#718096;letter-spacing:0.08em}
    .card-title{font-family:Inter,Segoe UI,system-ui,sans-serif;font-size:15px;font-weight:700;fill:#2D3748}
    .small{font-family:Inter,Segoe UI,system-ui,sans-serif;font-size:11px;fill:#718096}
    .tag{font-family:Inter,Segoe UI,system-ui,sans-serif;font-size:11px;font-weight:600}
  ]]></style>
  <linearGradient id="accentGrad" x1="0" y1="0" x2="1" y2="0">
    <stop offset="0%" stop-color="#B8D4E3"/><stop offset="50%" stop-color="#D4C5E2"/><stop offset="100%" stop-color="#F2C1C1"/>
  </linearGradient>
  <filter id="shadow" x="-3%" y="-3%" width="106%" height="112%">
    <feDropShadow dx="0" dy="2" stdDeviation="4" flood-color="#2D3748" flood-opacity="0.07"/>
  </filter>
  <filter id="shadow-lg" x="-2%" y="-2%" width="104%" height="110%">
    <feDropShadow dx="0" dy="4" stdDeviation="8" flood-color="#2D3748" flood-opacity="0.10"/>
  </filter>
  <marker id="arrow" viewBox="0 0 10 8" refX="9" refY="4" markerWidth="10" markerHeight="8" orient="auto">
    <path d="M0 0L10 4L0 8Z" fill="#9B8EC0"/>
  </marker>
  <marker id="arrow-down" viewBox="0 0 8 10" refX="4" refY="9" markerWidth="8" markerHeight="10" orient="0">
    <path d="M0 0L4 10L8 0Z" fill="#9B8EC0"/>
  </marker>
</defs>

<!-- Background -->
<rect width="1200" height="2200" fill="#FFFFFF"/>

<!-- ============================================ -->
<!-- SECTION 1: HEADER (y=0..160)                 -->
<!-- ============================================ -->
<g id="header">
  <!-- Gradient accent bar -->
  <rect x="0" y="0" width="1200" height="8" fill="url(#accentGrad)"/>

  <!-- Database icon -->
  <g transform="translate(370,48) scale(0.065)">
    <path d="M448 80v48c0 44.2-100.3 80-192 80S64 172.2 64 128V80C64 35.8 164.3 0 256 0s192 35.8 192 80zm-54.8 134.7c20.8-7.4 39.9-16.9 54.8-28.6V240c0 44.2-100.3 80-192 80S64 284.2 64 240v-53.9c14.9 11.8 34 21.2 54.8 28.6C163.3 230.7 213.7 240 256 240s92.7-9.3 137.2-25.3zM448 298.1V352c0 44.2-100.3 80-192 80S64 396.2 64 352v-53.9c14.9 11.8 34 21.2 54.8 28.6C163.3 342.7 213.7 352 256 352s92.7-9.3 137.2-25.3c20.8-7.4 39.9-16.9 54.8-28.6z" fill="#B8D4E3"/>
  </g>

  <!-- Title -->
  <text x="410" y="82" class="title">SubQL</text>

  <!-- Tagline -->
  <text x="600" y="112" text-anchor="middle" class="body" style="font-size:16px;">High-Performance SQL Subscription Dispatch Engine</text>
  <text x="600" y="132" text-anchor="middle" class="body" style="font-size:14px;">for PostgreSQL CDC Event Fanout</text>

  <!-- Tech badges -->
  <g transform="translate(390,142)">
    <rect x="0" y="0" width="70" height="22" rx="11" fill="#F5E6A3" opacity="0.7"/>
    <text x="35" y="15" text-anchor="middle" class="tag" style="fill:#8B7000;font-size:10px;">RUST</text>
    <rect x="82" y="0" width="105" height="22" rx="11" fill="#B8D4E3" opacity="0.7"/>
    <text x="134" y="15" text-anchor="middle" class="tag" style="fill:#2A5A7B;font-size:10px;">POSTGRESQL</text>
    <rect x="199" y="0" width="60" height="22" rx="11" fill="#B8DFC8" opacity="0.7"/>
    <text x="229" y="15" text-anchor="middle" class="tag" style="fill:#2D6B4A;font-size:10px;">CDC</text>
  </g>
</g>

<!-- ============================================ -->
<!-- SECTION 2: ABSTRACT (y=168..225)             -->
<!-- ============================================ -->
<g id="abstract">
  <foreignObject x="100" y="175" width="1000" height="50">
    <div xmlns="http://www.w3.org/1999/xhtml" style="font-family:Inter,Segoe UI,system-ui,sans-serif;font-size:13.5px;color:#718096;text-align:center;line-height:1.6;">
      SubQL compiles SQL WHERE predicates into bytecode programs, indexes them with a 5-level hybrid index, and evaluates
      incoming PostgreSQL CDC events against all active subscriptions using lock-free atomic snapshots &#8212; dispatching
      matched user sets via compressed RoaringBitmap operations.
    </div>
  </foreignObject>
</g>

<!-- ============================================ -->
<!-- SECTION 3: KEY FEATURES (y=230..390)         -->
<!-- ============================================ -->
<g id="features">
  <text x="600" y="252" text-anchor="middle" class="section-head">Key Features</text>
  <line x1="560" y1="260" x2="640" y2="260" stroke="#D4C5E2" stroke-width="2"/>

  <!-- Card 1: Tri-State Logic -->
  <g filter="url(#shadow)">
    <rect x="40" y="278" width="346" height="105" rx="8" fill="#F7FAFC"/>
    <rect x="40" y="286" width="4" height="89" fill="#B8D4E3"/>
  </g>
  <text x="60" y="300" class="card-title">Tri-State Logic</text>
  <text x="60" y="317" class="body">SQL-correct TRUE / FALSE / UNKNOWN</text>
  <text x="60" y="333" class="body">evaluation with full three-valued logic.</text>
  <text x="60" y="349" class="body">De Morgan's law compliance, short-circuit</text>
  <text x="60" y="365" class="body">optimization on AND/OR operators.</text>

  <!-- Card 2: Hybrid Indexing -->
  <g filter="url(#shadow)">
    <rect x="427" y="278" width="346" height="105" rx="8" fill="#F7FAFC"/>
    <rect x="427" y="286" width="4" height="89" fill="#F2C1C1"/>
  </g>
  <text x="447" y="300" class="card-title">Hybrid Indexing</text>
  <text x="447" y="317" class="body">5-level index pruning with RoaringBitmap</text>
  <text x="447" y="333" class="body">compressed integer sets. Equality, range,</text>
  <text x="447" y="349" class="body">NULL, dependency, and fallback indexes</text>
  <text x="447" y="365" class="body">for fast candidate selection.</text>

  <!-- Card 3: Lock-Free Dispatch -->
  <g filter="url(#shadow)">
    <rect x="814" y="278" width="346" height="105" rx="8" fill="#F7FAFC"/>
    <rect x="814" y="286" width="4" height="89" fill="#B8DFC8"/>
  </g>
  <text x="834" y="300" class="card-title">Lock-Free Dispatch</text>
  <text x="834" y="317" class="body">ArcSwap atomic snapshots for zero-</text>
  <text x="834" y="333" class="body">contention reads. Single-writer model</text>
  <text x="834" y="349" class="body">with immutable snapshot sharing.</text>
  <text x="834" y="365" class="body">O(1) bitmap union for user resolution.</text>
</g>

<!-- ============================================ -->
<!-- SECTION 4: ARCHITECTURE PIPELINE (y=400..720)-->
<!-- ============================================ -->
<g id="pipeline">
  <text x="600" y="420" text-anchor="middle" class="section-head">Architecture Pipeline</text>
  <line x1="530" y1="428" x2="670" y2="428" stroke="#D4C5E2" stroke-width="2"/>

  <!-- Lavender panel -->
  <rect x="40" y="440" width="1120" height="262" rx="12" fill="#D4C5E2" opacity="0.18" filter="url(#shadow-lg)"/>
  <rect x="40" y="440" width="1120" height="262" rx="12" fill="none" stroke="#D4C5E2" stroke-width="1" opacity="0.5"/>

  <!-- ROW 1 (L→R): SQL Input → Parser → Canonicalize → Bytecode Compile → Predicate Store -->
  <!-- Box positions: x = 80, 270, 460, 650, 840 each w=160 h=44 -->
  <g>
    <rect x="80" y="460" width="160" height="44" rx="6" fill="#FFFFFF" stroke="#B8D4E3" stroke-width="1.5"/>
    <text x="160" y="487" text-anchor="middle" class="sub-head" style="font-size:13px;">SQL Input</text>

    <rect x="270" y="460" width="160" height="44" rx="6" fill="#FFFFFF" stroke="#B8D4E3" stroke-width="1.5"/>
    <text x="350" y="487" text-anchor="middle" class="sub-head" style="font-size:13px;">Parser</text>

    <rect x="460" y="460" width="160" height="44" rx="6" fill="#FFFFFF" stroke="#B8D4E3" stroke-width="1.5"/>
    <text x="540" y="487" text-anchor="middle" class="sub-head" style="font-size:13px;">Canonicalize</text>

    <rect x="650" y="460" width="160" height="44" rx="6" fill="#FFFFFF" stroke="#B8D4E3" stroke-width="1.5"/>
    <text x="730" y="482" text-anchor="middle" class="sub-head" style="font-size:13px;">Bytecode</text>
    <text x="730" y="497" text-anchor="middle" class="body" style="font-size:11px;">Compile</text>

    <rect x="840" y="460" width="160" height="44" rx="6" fill="#FFFFFF" stroke="#B8D4E3" stroke-width="1.5"/>
    <text x="920" y="482" text-anchor="middle" class="sub-head" style="font-size:13px;">Predicate</text>
    <text x="920" y="497" text-anchor="middle" class="body" style="font-size:11px;">Store</text>
  </g>

  <!-- Row 1 arrows -->
  <line x1="240" y1="482" x2="268" y2="482" stroke="#9B8EC0" stroke-width="2" marker-end="url(#arrow)"/>
  <line x1="430" y1="482" x2="458" y2="482" stroke="#9B8EC0" stroke-width="2" marker-end="url(#arrow)"/>
  <line x1="620" y1="482" x2="648" y2="482" stroke="#9B8EC0" stroke-width="2" marker-end="url(#arrow)"/>
  <line x1="810" y1="482" x2="838" y2="482" stroke="#9B8EC0" stroke-width="2" marker-end="url(#arrow)"/>

  <!-- Vertical connector from Predicate Store down to Hybrid Indexes -->
  <line x1="920" y1="504" x2="920" y2="543" stroke="#9B8EC0" stroke-width="2" marker-end="url(#arrow-down)"/>

  <!-- ROW 2 (R→L): Hybrid Indexes → Table Partitions → Event Dispatch → Matched Users -->
  <g>
    <rect x="840" y="548" width="160" height="44" rx="6" fill="#FFFFFF" stroke="#F2C1C1" stroke-width="1.5"/>
    <text x="920" y="569" text-anchor="middle" class="sub-head" style="font-size:13px;">Hybrid</text>
    <text x="920" y="584" text-anchor="middle" class="body" style="font-size:11px;">Indexes</text>

    <rect x="650" y="548" width="160" height="44" rx="6" fill="#FFFFFF" stroke="#F2C1C1" stroke-width="1.5"/>
    <text x="730" y="569" text-anchor="middle" class="sub-head" style="font-size:13px;">Table</text>
    <text x="730" y="584" text-anchor="middle" class="body" style="font-size:11px;">Partitions</text>

    <rect x="460" y="548" width="160" height="44" rx="6" fill="#FFFFFF" stroke="#F2C1C1" stroke-width="1.5"/>
    <text x="540" y="569" text-anchor="middle" class="sub-head" style="font-size:13px;">Event</text>
    <text x="540" y="584" text-anchor="middle" class="body" style="font-size:11px;">Dispatch</text>

    <rect x="270" y="548" width="160" height="44" rx="6" fill="#FFFFFF" stroke="#B8DFC8" stroke-width="1.5"/>
    <text x="350" y="569" text-anchor="middle" class="sub-head" style="font-size:13px;">Matched</text>
    <text x="350" y="584" text-anchor="middle" class="body" style="font-size:11px;">Users</text>

    <rect x="80" y="548" width="160" height="44" rx="6" fill="#FFFFFF" stroke="#B8DFC8" stroke-width="1.5"/>
    <text x="160" y="575" text-anchor="middle" class="sub-head" style="font-size:13px;fill:#2D6B4A;">Output</text>
  </g>

  <!-- Row 2 arrows (R→L) -->
  <line x1="840" y1="570" x2="812" y2="570" stroke="#9B8EC0" stroke-width="2" marker-end="url(#arrow)"/>
  <line x1="650" y1="570" x2="622" y2="570" stroke="#9B8EC0" stroke-width="2" marker-end="url(#arrow)"/>
  <line x1="460" y1="570" x2="432" y2="570" stroke="#9B8EC0" stroke-width="2" marker-end="url(#arrow)"/>
  <line x1="270" y1="570" x2="242" y2="570" stroke="#9B8EC0" stroke-width="2" marker-end="url(#arrow)"/>

  <!-- Type annotations -->
  <text x="600" y="618" text-anchor="middle" class="label" style="font-size:10px;letter-spacing:0.04em;">DATA FLOW</text>
  <text x="600" y="636" text-anchor="middle" class="code-sm">
    SQL String &#x2192; AST &#x2192; Normalized SQL &#x2192; BytecodeProgram &#x2192; PredicateId &#x2192; RoaringBitmap &#x2192; Vec&lt;UserId&gt;
  </text>

  <!-- CDC Event Type badges -->
  <text x="385" y="668" text-anchor="middle" class="label" style="font-size:10px;">CDC EVENT TYPES</text>
  <rect x="440" y="656" width="72" height="20" rx="10" fill="#B8DFC8"/>
  <text x="476" y="670" text-anchor="middle" class="tag" style="fill:#2D6B4A;font-size:9px;">INSERT</text>
  <rect x="520" y="656" width="72" height="20" rx="10" fill="#F5E6A3"/>
  <text x="556" y="670" text-anchor="middle" class="tag" style="fill:#8B7000;font-size:9px;">UPDATE</text>
  <rect x="600" y="656" width="72" height="20" rx="10" fill="#F2C1C1"/>
  <text x="636" y="670" text-anchor="middle" class="tag" style="fill:#8B3A3A;font-size:9px;">DELETE</text>

  <!-- Event kind note -->
  <text x="600" y="695" text-anchor="middle" class="small">INSERT/UPDATE &#x2192; new_row | DELETE &#x2192; old_row | UPDATE hint: changed_columns</text>
</g>

<!-- ============================================ -->
<!-- SECTION 5: MODULE DEEP-DIVE (y=740..1220)    -->
<!-- ============================================ -->
<g id="modules">
  <text x="600" y="762" text-anchor="middle" class="section-head">Module Deep-Dive</text>
  <line x1="535" y1="770" x2="665" y2="770" stroke="#D4C5E2" stroke-width="2"/>

  <!-- MODULE: Compiler (blue) - top left -->
  <g filter="url(#shadow)">
    <rect x="40" y="785" width="540" height="200" rx="8" fill="#F7FAFC"/>
    <rect x="40" y="793" width="4" height="184" fill="#B8D4E3"/>
  </g>
  <rect x="48" y="790" width="88" height="20" rx="4" fill="#B8D4E3" opacity="0.4"/>
  <text x="92" y="804" text-anchor="middle" class="tag" style="fill:#2A5A7B;font-size:10px;">COMPILER</text>
  <text x="60" y="830" class="code-sm">parser.rs</text>
  <text x="150" y="830" class="body" style="font-size:11px;">SQL &#x2192; AST &#x2192; BytecodeProgram (sqlparser crate)</text>
  <text x="60" y="848" class="code-sm">canonicalize.rs</text>
  <text x="165" y="848" class="body" style="font-size:11px;">normalize + dual-seahash &#x2192; PredicateHash (u128)</text>
  <text x="60" y="866" class="code-sm">vm.rs</text>
  <text x="150" y="866" class="body" style="font-size:11px;">Stack-based VM, cap 16, eval() &#x2192; Tri</text>
  <text x="60" y="884" class="code-sm">tristate.rs</text>
  <text x="150" y="884" class="body" style="font-size:11px;">Tri: True | False | Unknown (De Morgan)</text>

  <!-- Instruction mini-table -->
  <rect x="60" y="898" width="505" height="78" rx="4" fill="#B8D4E3" opacity="0.12" stroke="#B8D4E3" stroke-width="0.5"/>
  <text x="70" y="914" class="tag" style="fill:#2A5A7B;font-size:9px;">23 BYTECODE INSTRUCTIONS</text>
  <text x="70" y="930" class="code" style="font-size:10px;">Stack(2)   PushLiteral  LoadColumn</text>
  <text x="70" y="944" class="code" style="font-size:10px;">Cmp(6)     Equal  NotEqual  LessThan  GreaterThan  LT/GTE</text>
  <text x="70" y="958" class="code" style="font-size:10px;">Null(2)    IsNull  IsNotNull    Logic(3)  And  Or  Not</text>
  <text x="70" y="972" class="code" style="font-size:10px;">Arith(6)   Add Sub Mul Div Mod Neg   Special(3) In Between Like</text>

  <!-- MODULE: Runtime (pink) - top right -->
  <g filter="url(#shadow)">
    <rect x="620" y="785" width="540" height="200" rx="8" fill="#F7FAFC"/>
    <rect x="620" y="793" width="4" height="184" fill="#F2C1C1"/>
  </g>
  <rect x="628" y="790" width="78" height="20" rx="4" fill="#F2C1C1" opacity="0.4"/>
  <text x="667" y="804" text-anchor="middle" class="tag" style="fill:#8B3A3A;font-size:10px;">RUNTIME</text>
  <text x="640" y="830" class="code-sm">engine.rs</text>
  <text x="730" y="830" class="body" style="font-size:11px;">SubscriptionEngine&lt;D: Dialect&gt; &#8212; main API</text>
  <text x="640" y="848" class="code-sm">dispatch.rs</text>
  <text x="730" y="848" class="body" style="font-size:11px;">UserDictionary + dispatch_users pipeline</text>
  <text x="640" y="866" class="code-sm">partition.rs</text>
  <text x="730" y="866" class="body" style="font-size:11px;">ArcSwap&lt;TablePartitionSnapshot&gt; lock-free</text>
  <text x="640" y="884" class="code-sm">predicate.rs</text>
  <text x="730" y="884" class="body" style="font-size:11px;">Slab + refcount + RoaringBitmap per pred</text>
  <text x="640" y="902" class="code-sm">indexes.rs</text>
  <text x="730" y="902" class="body" style="font-size:11px;">HybridIndexes, extract_indexable_atoms()</text>
  <text x="640" y="920" class="code-sm">ids.rs</text>
  <text x="730" y="920" class="body" style="font-size:11px;">PredicateId(NonZeroU32), UserOrdinal(u32)</text>

  <!-- Dispatch flow mini-diagram -->
  <rect x="640" y="934" width="505" height="40" rx="4" fill="#F2C1C1" opacity="0.12" stroke="#F2C1C1" stroke-width="0.5"/>
  <text x="650" y="949" class="tag" style="fill:#8B3A3A;font-size:9px;">DISPATCH FLOW</text>
  <text x="650" y="965" class="code" style="font-size:10px;">Event &#x2192; select_candidates() &#x2192; VM.eval() &#x2192; bitmap |= &#x2192; resolve_users()</text>

  <!-- MODULE: Persistence (green) - bottom left -->
  <g filter="url(#shadow)">
    <rect x="40" y="1005" width="540" height="200" rx="8" fill="#F7FAFC"/>
    <rect x="40" y="1013" width="4" height="184" fill="#B8DFC8"/>
  </g>
  <rect x="48" y="1010" width="100" height="20" rx="4" fill="#B8DFC8" opacity="0.4"/>
  <text x="98" y="1024" text-anchor="middle" class="tag" style="fill:#2D6B4A;font-size:10px;">PERSISTENCE</text>
  <text x="60" y="1050" class="code-sm">shard.rs</text>
  <text x="150" y="1050" class="body" style="font-size:11px;">36-byte header + LZ4 compressed payload</text>
  <text x="60" y="1068" class="code-sm">codec.rs</text>
  <text x="150" y="1068" class="body" style="font-size:11px;">bincode serialize &#x2192; LZ4 level 4 compress</text>
  <text x="60" y="1086" class="code-sm">merge.rs</text>
  <text x="150" y="1086" class="body" style="font-size:11px;">Background std::thread + mpsc channel</text>

  <!-- Binary layout diagram -->
  <rect x="60" y="1100" width="505" height="95" rx="4" fill="#B8DFC8" opacity="0.12" stroke="#B8DFC8" stroke-width="0.5"/>
  <text x="70" y="1116" class="tag" style="fill:#2D6B4A;font-size:9px;">SHARD BINARY LAYOUT (36-BYTE HEADER)</text>
  <!-- Header fields -->
  <rect x="70" y="1124" width="44" height="22" rx="3" fill="#B8DFC8" opacity="0.35"/>
  <text x="92" y="1139" text-anchor="middle" class="code" style="font-size:8px;">SUBQL</text>
  <text x="92" y="1152" text-anchor="middle" class="small" style="font-size:7px;">5B</text>
  <rect x="118" y="1124" width="30" height="22" rx="3" fill="#B8DFC8" opacity="0.35"/>
  <text x="133" y="1139" text-anchor="middle" class="code" style="font-size:8px;">v1</text>
  <text x="133" y="1152" text-anchor="middle" class="small" style="font-size:7px;">2B</text>
  <rect x="152" y="1124" width="24" height="22" rx="3" fill="#B8DFC8" opacity="0.25"/>
  <text x="164" y="1139" text-anchor="middle" class="code" style="font-size:8px;">pad</text>
  <text x="164" y="1152" text-anchor="middle" class="small" style="font-size:7px;">1B</text>
  <rect x="180" y="1124" width="50" height="22" rx="3" fill="#B8DFC8" opacity="0.35"/>
  <text x="205" y="1139" text-anchor="middle" class="code" style="font-size:8px;">tbl_id</text>
  <text x="205" y="1152" text-anchor="middle" class="small" style="font-size:7px;">4B</text>
  <rect x="234" y="1124" width="65" height="22" rx="3" fill="#B8DFC8" opacity="0.35"/>
  <text x="266" y="1139" text-anchor="middle" class="code" style="font-size:7.5px;">fingerprint</text>
  <text x="266" y="1152" text-anchor="middle" class="small" style="font-size:7px;">8B</text>
  <rect x="303" y="1124" width="65" height="22" rx="3" fill="#B8DFC8" opacity="0.35"/>
  <text x="335" y="1139" text-anchor="middle" class="code" style="font-size:7.5px;">uncomp_sz</text>
  <text x="335" y="1152" text-anchor="middle" class="small" style="font-size:7px;">8B</text>
  <rect x="372" y="1124" width="60" height="22" rx="3" fill="#B8DFC8" opacity="0.35"/>
  <text x="402" y="1139" text-anchor="middle" class="code" style="font-size:7.5px;">comp_sz</text>
  <text x="402" y="1152" text-anchor="middle" class="small" style="font-size:7px;">8B</text>
  <!-- Payload -->
  <rect x="440" y="1124" width="115" height="22" rx="3" fill="#2D6B4A" opacity="0.15"/>
  <text x="497" y="1139" text-anchor="middle" class="code" style="font-size:8px;">LZ4 Payload</text>
  <text x="497" y="1152" text-anchor="middle" class="small" style="font-size:7px;">variable</text>
  <!-- Merge info -->
  <text x="70" y="1178" class="body" style="font-size:10.5px;">Merge: dedup predicates by hash (keep newest) &#x2022; dedup bindings by subscription_id</text>
  <text x="70" y="1190" class="body" style="font-size:10.5px;">Payload: Vec&lt;PredicateData&gt; + Vec&lt;BindingData&gt; + UserDictData + created_at_unix_ms</text>

  <!-- MODULE: Config (yellow) - bottom right -->
  <g filter="url(#shadow)">
    <rect x="620" y="1005" width="540" height="200" rx="8" fill="#F7FAFC"/>
    <rect x="620" y="1013" width="4" height="184" fill="#F5E6A3"/>
  </g>
  <rect x="628" y="1010" width="68" height="20" rx="4" fill="#F5E6A3" opacity="0.5"/>
  <text x="662" y="1024" text-anchor="middle" class="tag" style="fill:#8B7000;font-size:10px;">CONFIG</text>

  <!-- TOML code snippet -->
  <rect x="640" y="1038" width="500" height="155" rx="6" fill="#2D3748"/>
  <text x="655" y="1058" class="code" style="fill:#F5E6A3;font-size:11px;">## subql.toml</text>
  <text x="655" y="1076" class="code" style="fill:#E2E8F0;font-size:11px;">storage_path = "/var/lib/subql/shards"</text>
  <text x="655" y="1094" class="code" style="fill:#E2E8F0;font-size:11px;">rotation_threshold = 10485760  <tspan fill="#718096"># 10 MB</tspan></text>
  <text x="655" y="1118" class="code" style="fill:#F2C1C1;font-size:11px;">[merge]</text>
  <text x="655" y="1136" class="code" style="fill:#E2E8F0;font-size:11px;">shard_threshold = 5    <tspan fill="#718096"># auto-merge trigger</tspan></text>
  <text x="655" y="1154" class="code" style="fill:#E2E8F0;font-size:11px;">interval_secs = 3600   <tspan fill="#718096"># 1 hour</tspan></text>
  <text x="655" y="1174" class="code" style="fill:#B8D4E3;font-size:11px;">[catalog]</text>
  <text x="655" y="1192" class="code" style="fill:#E2E8F0;font-size:10px;">database_url = "postgresql://localhost/mydb"</text>
</g>

<!-- ============================================ -->
<!-- SECTION 6: DATA TYPES (y=1240..1400)         -->
<!-- ============================================ -->
<g id="datatypes">
  <text x="600" y="1262" text-anchor="middle" class="section-head">Core Data Types</text>
  <line x1="540" y1="1270" x2="660" y2="1270" stroke="#D4C5E2" stroke-width="2"/>

  <!-- 5 type cards: each 211px wide, 16px gap -->
  <!-- Card 1: WalEvent -->
  <g filter="url(#shadow)">
    <rect x="40" y="1285" width="211" height="108" rx="6" fill="#F7FAFC"/>
  </g>
  <rect x="40" y="1285" width="211" height="26" rx="6" fill="#D4C5E2" opacity="0.3"/>
  <text x="145" y="1303" text-anchor="middle" class="sub-head" style="font-size:12px;">WalEvent</text>
  <text x="52" y="1325" class="code" style="font-size:9.5px;">kind: EventKind</text>
  <text x="52" y="1339" class="code" style="font-size:9.5px;">table_id: u32</text>
  <text x="52" y="1353" class="code" style="font-size:9.5px;">pk: PrimaryKey</text>
  <text x="52" y="1367" class="code" style="font-size:9.5px;">old/new_row: Option</text>
  <text x="52" y="1381" class="code" style="font-size:9.5px;">changed_columns: Arc</text>

  <!-- Card 2: Cell -->
  <g filter="url(#shadow)">
    <rect x="267" y="1285" width="211" height="108" rx="6" fill="#F7FAFC"/>
  </g>
  <rect x="267" y="1285" width="211" height="26" rx="6" fill="#B8D4E3" opacity="0.3"/>
  <text x="372" y="1303" text-anchor="middle" class="sub-head" style="font-size:12px;">Cell (6 variants)</text>
  <text x="279" y="1325" class="code" style="font-size:9.5px;">Missing</text>
  <text x="279" y="1339" class="code" style="font-size:9.5px;">Null</text>
  <text x="279" y="1353" class="code" style="font-size:9.5px;">Bool(bool)  Int(i64)</text>
  <text x="279" y="1367" class="code" style="font-size:9.5px;">Float(f64)</text>
  <text x="279" y="1381" class="code" style="font-size:9.5px;">String(Arc&lt;str&gt;)</text>

  <!-- Card 3: SubscriptionSpec -->
  <g filter="url(#shadow)">
    <rect x="494" y="1285" width="211" height="108" rx="6" fill="#F7FAFC"/>
  </g>
  <rect x="494" y="1285" width="211" height="26" rx="6" fill="#F2C1C1" opacity="0.3"/>
  <text x="599" y="1303" text-anchor="middle" class="sub-head" style="font-size:12px;">SubscriptionSpec</text>
  <text x="506" y="1325" class="code" style="font-size:9.5px;">subscription_id: u64</text>
  <text x="506" y="1339" class="code" style="font-size:9.5px;">user_id: u64</text>
  <text x="506" y="1353" class="code" style="font-size:9.5px;">session_id: Option</text>
  <text x="506" y="1367" class="code" style="font-size:9.5px;">sql: String</text>
  <text x="506" y="1381" class="code" style="font-size:9.5px;">updated_at_unix_ms</text>

  <!-- Card 4: Tri -->
  <g filter="url(#shadow)">
    <rect x="721" y="1285" width="211" height="108" rx="6" fill="#F7FAFC"/>
  </g>
  <rect x="721" y="1285" width="211" height="26" rx="6" fill="#B8DFC8" opacity="0.3"/>
  <text x="826" y="1303" text-anchor="middle" class="sub-head" style="font-size:12px;">Tri</text>
  <text x="733" y="1325" class="code" style="font-size:9.5px;">True | False | Unknown</text>
  <text x="733" y="1345" class="body" style="font-size:9.5px;">AND: False wins</text>
  <text x="733" y="1359" class="body" style="font-size:9.5px;">OR: True wins</text>
  <text x="733" y="1373" class="body" style="font-size:9.5px;">NOT: Unk &#x2192; Unk</text>
  <text x="733" y="1387" class="body" style="font-size:9.5px;">impl Not, De Morgan</text>

  <!-- Card 5: BytecodeProgram -->
  <g filter="url(#shadow)">
    <rect x="948" y="1285" width="212" height="108" rx="6" fill="#F7FAFC"/>
  </g>
  <rect x="948" y="1285" width="212" height="26" rx="6" fill="#F5E6A3" opacity="0.3"/>
  <text x="1054" y="1303" text-anchor="middle" class="sub-head" style="font-size:12px;">BytecodeProgram</text>
  <text x="960" y="1325" class="code" style="font-size:9.5px;">instructions:</text>
  <text x="960" y="1339" class="code" style="font-size:9.5px;">  Vec&lt;Instruction&gt;</text>
  <text x="960" y="1359" class="code" style="font-size:9.5px;">dependency_columns:</text>
  <text x="960" y="1373" class="code" style="font-size:9.5px;">  Vec&lt;ColumnId&gt;</text>
  <text x="960" y="1387" class="body" style="font-size:9.5px;">sorted, deduped</text>
</g>

<!-- ============================================ -->
<!-- SECTION 7: HYBRID INDEX ARCH (y=1420..1600)  -->
<!-- ============================================ -->
<g id="indexes">
  <text x="600" y="1442" text-anchor="middle" class="section-head">Hybrid Index Architecture</text>
  <line x1="510" y1="1450" x2="690" y2="1450" stroke="#D4C5E2" stroke-width="2"/>
  <text x="600" y="1467" text-anchor="middle" class="body" style="font-size:11px;">5-level candidate selection &#x2014; union of all matching bitmaps &#x2192; VM evaluation for precision</text>

  <!-- Level 1: Equality -->
  <rect x="40" y="1480" width="1120" height="28" rx="5" fill="#B8D4E3" opacity="0.25"/>
  <rect x="40" y="1480" width="5" height="28" rx="2" fill="#B8D4E3"/>
  <text x="58" y="1499" class="sub-head" style="font-size:12px;">1. Equality</text>
  <text x="170" y="1499" class="code" style="font-size:10px;fill:#718096;">AHashMap&lt;(ColumnId, Cell), RoaringBitmap&gt;</text>
  <text x="560" y="1499" class="body" style="font-size:10.5px;">Matches: col = literal, IN(v1, v2, ...)</text>

  <!-- Level 2: Range -->
  <rect x="40" y="1514" width="1120" height="28" rx="5" fill="#F2C1C1" opacity="0.2"/>
  <rect x="40" y="1514" width="5" height="28" rx="2" fill="#F2C1C1"/>
  <text x="58" y="1533" class="sub-head" style="font-size:12px;">2. Range</text>
  <text x="170" y="1533" class="code" style="font-size:10px;fill:#718096;">AHashMap&lt;ColumnId, Vec&lt;RangeEntry&gt;&gt;</text>
  <text x="560" y="1533" class="body" style="font-size:10.5px;">Matches: col &gt; N, col &lt; N, BETWEEN (sorted by lower bound)</text>

  <!-- Level 3: NULL -->
  <rect x="40" y="1548" width="1120" height="28" rx="5" fill="#B8DFC8" opacity="0.2"/>
  <rect x="40" y="1548" width="5" height="28" rx="2" fill="#B8DFC8"/>
  <text x="58" y="1567" class="sub-head" style="font-size:12px;">3. NULL</text>
  <text x="170" y="1567" class="code" style="font-size:10px;fill:#718096;">AHashMap&lt;(ColumnId, NullKind), RoaringBitmap&gt;</text>
  <text x="560" y="1567" class="body" style="font-size:10.5px;">Matches: IS NULL, IS NOT NULL</text>

  <!-- Level 4: Dependency -->
  <rect x="40" y="1582" width="1120" height="28" rx="5" fill="#D4C5E2" opacity="0.2"/>
  <rect x="40" y="1582" width="5" height="28" rx="2" fill="#D4C5E2"/>
  <text x="58" y="1601" class="sub-head" style="font-size:12px;">4. Dependency</text>
  <text x="170" y="1601" class="code" style="font-size:10px;fill:#718096;">AHashMap&lt;ColumnId, RoaringBitmap&gt;</text>
  <text x="560" y="1601" class="body" style="font-size:10.5px;">UPDATE optimization: skip predicates unrelated to changed_columns</text>

  <!-- Level 5: Fallback -->
  <rect x="40" y="1616" width="1120" height="28" rx="5" fill="#F5E6A3" opacity="0.2"/>
  <rect x="40" y="1616" width="5" height="28" rx="2" fill="#F5E6A3"/>
  <text x="58" y="1635" class="sub-head" style="font-size:12px;">5. Fallback</text>
  <text x="170" y="1635" class="code" style="font-size:10px;fill:#718096;">RoaringBitmap</text>
  <text x="560" y="1635" class="body" style="font-size:10.5px;">Catches: LIKE, NOT EQUAL, complex expressions, unindexable predicates</text>
</g>

<!-- ============================================ -->
<!-- SECTION 8: USE CASES (y=1660..1800)          -->
<!-- ============================================ -->
<g id="usecases">
  <text x="600" y="1682" text-anchor="middle" class="section-head">Use Cases</text>
  <line x1="555" y1="1690" x2="645" y2="1690" stroke="#D4C5E2" stroke-width="2"/>

  <!-- 4 cards: 265px wide, 20px gap -->
  <!-- Card 1: Real-Time Event Streaming -->
  <g filter="url(#shadow)">
    <rect x="40" y="1705" width="265" height="90" rx="8" fill="#F7FAFC"/>
  </g>
  <rect x="40" y="1705" width="265" height="3" rx="1" fill="#F5D5C8"/>
  <circle cx="64" cy="1730" r="12" fill="#F5D5C8" opacity="0.4"/>
  <text x="64" y="1735" text-anchor="middle" style="font-size:12px;">&#x26A1;</text>
  <text x="84" y="1734" class="sub-head" style="font-size:12px;">Real-Time Streaming</text>
  <text x="52" y="1754" class="body" style="font-size:10.5px;">Stream PostgreSQL changes to</text>
  <text x="52" y="1768" class="body" style="font-size:10.5px;">WebSocket clients with per-user</text>
  <text x="52" y="1782" class="body" style="font-size:10.5px;">SQL filter predicates.</text>

  <!-- Card 2: Multi-Tenant CDC Fanout -->
  <g filter="url(#shadow)">
    <rect x="325" y="1705" width="265" height="90" rx="8" fill="#F7FAFC"/>
  </g>
  <rect x="325" y="1705" width="265" height="3" rx="1" fill="#F5D5C8"/>
  <circle cx="349" cy="1730" r="12" fill="#F5D5C8" opacity="0.4"/>
  <text x="349" y="1735" text-anchor="middle" style="font-size:12px;">&#x1F465;</text>
  <text x="369" y="1734" class="sub-head" style="font-size:12px;">Multi-Tenant Fanout</text>
  <text x="337" y="1754" class="body" style="font-size:10.5px;">Route database events to tenant-</text>
  <text x="337" y="1768" class="body" style="font-size:10.5px;">specific handlers based on</text>
  <text x="337" y="1782" class="body" style="font-size:10.5px;">subscription predicates.</text>

  <!-- Card 3: Notification Systems -->
  <g filter="url(#shadow)">
    <rect x="610" y="1705" width="265" height="90" rx="8" fill="#F7FAFC"/>
  </g>
  <rect x="610" y="1705" width="265" height="3" rx="1" fill="#F5D5C8"/>
  <circle cx="634" cy="1730" r="12" fill="#F5D5C8" opacity="0.4"/>
  <text x="634" y="1735" text-anchor="middle" style="font-size:12px;">&#x1F514;</text>
  <text x="654" y="1734" class="sub-head" style="font-size:12px;">Notification Systems</text>
  <text x="622" y="1754" class="body" style="font-size:10.5px;">Evaluate complex conditions to</text>
  <text x="622" y="1768" class="body" style="font-size:10.5px;">determine which users should</text>
  <text x="622" y="1782" class="body" style="font-size:10.5px;">receive alerts.</text>

  <!-- Card 4: Session-Bound Subscriptions -->
  <g filter="url(#shadow)">
    <rect x="895" y="1705" width="265" height="90" rx="8" fill="#F7FAFC"/>
  </g>
  <rect x="895" y="1705" width="265" height="3" rx="1" fill="#F5D5C8"/>
  <circle cx="919" cy="1730" r="12" fill="#F5D5C8" opacity="0.4"/>
  <text x="919" y="1735" text-anchor="middle" style="font-size:12px;">&#x1F517;</text>
  <text x="939" y="1734" class="sub-head" style="font-size:12px;">Session-Bound Subs</text>
  <text x="907" y="1754" class="body" style="font-size:10.5px;">Ephemeral subscriptions tied to</text>
  <text x="907" y="1768" class="body" style="font-size:10.5px;">user sessions with automatic</text>
  <text x="907" y="1782" class="body" style="font-size:10.5px;">cleanup on disconnect.</text>
</g>

<!-- ============================================ -->
<!-- SECTION 9: PERFORMANCE DESIGN (y=1820..2050) -->
<!-- ============================================ -->
<g id="performance">
  <text x="600" y="1842" text-anchor="middle" class="section-head">Performance Design</text>
  <line x1="525" y1="1850" x2="675" y2="1850" stroke="#D4C5E2" stroke-width="2"/>

  <!-- 2-column grid, 3 rows -->
  <!-- Row 1 -->
  <g filter="url(#shadow)">
    <rect x="40" y="1865" width="540" height="52" rx="6" fill="#F7FAFC"/>
  </g>
  <circle cx="72" cy="1891" r="16" fill="#B8D4E3" opacity="0.3"/>
  <text x="72" y="1896" text-anchor="middle" class="sub-head" style="font-size:14px;fill:#2A5A7B;">&#x2699;</text>
  <text x="98" y="1885" class="sub-head" style="font-size:12px;">Zero-Copy Snapshots</text>
  <text x="98" y="1901" class="body" style="font-size:11px;">Arc&lt;str&gt; and Arc&lt;[Cell]&gt; for shared row images across readers</text>

  <g filter="url(#shadow)">
    <rect x="620" y="1865" width="540" height="52" rx="6" fill="#F7FAFC"/>
  </g>
  <circle cx="652" cy="1891" r="16" fill="#F2C1C1" opacity="0.3"/>
  <text x="652" y="1896" text-anchor="middle" class="sub-head" style="font-size:14px;fill:#8B3A3A;">&#x25A3;</text>
  <text x="678" y="1885" class="sub-head" style="font-size:12px;">Compressed Bitmaps</text>
  <text x="678" y="1901" class="body" style="font-size:11px;">RoaringBitmap for O(1) union/intersection on predicate sets</text>

  <!-- Row 2 -->
  <g filter="url(#shadow)">
    <rect x="40" y="1927" width="540" height="52" rx="6" fill="#F7FAFC"/>
  </g>
  <circle cx="72" cy="1953" r="16" fill="#B8DFC8" opacity="0.3"/>
  <text x="72" y="1958" text-anchor="middle" class="sub-head" style="font-size:14px;fill:#2D6B4A;">#</text>
  <text x="98" y="1947" class="sub-head" style="font-size:12px;">Predicate Deduplication</text>
  <text x="98" y="1963" class="body" style="font-size:11px;">128-bit dual-seahash of normalized SQL eliminates redundant evaluation</text>

  <g filter="url(#shadow)">
    <rect x="620" y="1927" width="540" height="52" rx="6" fill="#F7FAFC"/>
  </g>
  <circle cx="652" cy="1953" r="16" fill="#F5E6A3" opacity="0.3"/>
  <text x="652" y="1958" text-anchor="middle" class="sub-head" style="font-size:14px;fill:#8B7000;">&#x1F6E1;</text>
  <text x="678" y="1947" class="sub-head" style="font-size:12px;">Safe Rust</text>
  <text x="678" y="1963" class="body" style="font-size:11px;">#![forbid(unsafe_code)] &#8212; entire codebase verified safe</text>

  <!-- Row 3 -->
  <g filter="url(#shadow)">
    <rect x="40" y="1989" width="540" height="52" rx="6" fill="#F7FAFC"/>
  </g>
  <circle cx="72" cy="2015" r="16" fill="#D4C5E2" opacity="0.3"/>
  <text x="72" y="2020" text-anchor="middle" class="sub-head" style="font-size:14px;fill:#6B5B95;">&#x26A1;</text>
  <text x="98" y="2009" class="sub-head" style="font-size:12px;">Fast Hashing</text>
  <text x="98" y="2025" class="body" style="font-size:11px;">ahash for runtime maps (fast, non-deterministic) &#x2022; seahash for stable predicate identity</text>

  <g filter="url(#shadow)">
    <rect x="620" y="1989" width="540" height="52" rx="6" fill="#F7FAFC"/>
  </g>
  <circle cx="652" cy="2015" r="16" fill="#F5D5C8" opacity="0.3"/>
  <text x="652" y="2020" text-anchor="middle" class="sub-head" style="font-size:14px;fill:#A0522D;">&#x1F4E6;</text>
  <text x="678" y="2009" class="sub-head" style="font-size:12px;">LZ4 Compression</text>
  <text x="678" y="2025" class="body" style="font-size:11px;">Level 4 fast compression for shard payloads &#8212; prioritizes decode speed</text>
</g>

<!-- ============================================ -->
<!-- SECTION 10: FOOTER (y=2080..2200)            -->
<!-- ============================================ -->
<g id="footer">
  <line x1="40" y1="2090" x2="1160" y2="2090" stroke="#E2E8F0" stroke-width="1"/>

  <text x="600" y="2120" text-anchor="middle" class="body" style="font-size:12px;">
    SubQL &#x2022; Version 0.1.0 &#x2022; MIT License &#x2022; Rust 2021 Edition
  </text>
  <text x="600" y="2140" text-anchor="middle" class="body" style="font-size:11px;">
    Dependencies: sqlparser &#x2022; roaring &#x2022; arc-swap &#x2022; ahash &#x2022; seahash &#x2022; bincode &#x2022; lz4 &#x2022; slab &#x2022; serde
  </text>
  <text x="600" y="2160" text-anchor="middle" class="body" style="font-size:11px;">
    #![forbid(unsafe_code)] &#x2022; PostgreSQL / MySQL / SQLite dialects &#x2022; Lock-free dispatch with ArcSwap
  </text>

  <!-- Footer gradient bar -->
  <rect x="0" y="2192" width="1200" height="8" fill="url(#accentGrad)"/>
</g>

</svg>
